<?xml version="1.0" encoding="utf-8"?>
<!-- Generator: Adobe Illustrator 19.2.0, SVG Export Plug-In . SVG Version: 6.00 Build 0)  -->
<svg version="1.1" id="レイヤー_1" xmlns="http://www.w3.org/2000/svg" xmlns:xlink="http://www.w3.org/1999/xlink" x="0px"
	 y="0px" viewBox="0 0 143 36" style="enable-background:new 0 0 143 36;" xml:space="preserve">
<style type="text/css">
	.st0{display:none;fill:#374252;}
	.st1{fill:#FAFCFF;}
</style>
<path class="st0" d="M0,0h143v36H0V0z"/>
<path class="st1" d="M32.4,11.2L21.7,5.1C21.5,5,21.3,5,21,5.1l-10.7,6.2c-0.2,0.1-0.4,0.4-0.4,0.6v12.3c0,0.2,0.1,0.5,0.3,0.6
	L21,30.9c0.2,0.1,0.5,0.1,0.7,0l10.7-6.2c0.2-0.1,0.3-0.4,0.3-0.6V11.8C32.8,11.6,32.6,11.4,32.4,11.2 M20.6,9l-0.1,0.1l-3.8,2.2
	c-0.1,0-0.1,0.2,0,0.2l3.8,2.2l0.1,0.1v1.6c0,0.1-0.1,0.1-0.2,0.1l-6.9-4c-0.1,0-0.1-0.2,0-0.2l6.9-4c0.1,0,0.2,0,0.2,0.1
	C20.6,7.4,20.6,9,20.6,9z M29.3,11.5l-7,4c-0.1,0-0.2,0-0.2-0.1v-1.6l0.1-0.1l3.8-2.2c0.1,0,0.1-0.2,0-0.2l-3.8-2.2L22.2,9V7.4
	c0-0.1,0.1-0.1,0.2-0.1l7,4C29.4,11.4,29.4,11.5,29.3,11.5"/>
<path class="st1" d="M55.4,25.5c0,0,0.1,0.1,0,0.2c-0.3,0.3-0.6,0.7-0.9,1c-0.4,0.3-0.8,0.6-1.3,0.9c-0.5,0.2-1,0.4-1.5,0.6
	c-0.6,0.1-1.1,0.2-1.7,0.2c-1,0-1.9-0.2-2.7-0.5s-1.5-0.8-2.1-1.4s-1-1.3-1.4-2.1s-0.5-1.7-0.5-2.7c0-1,0.2-1.9,0.5-2.7
	s0.8-1.6,1.4-2.2c0.6-0.6,1.3-1.1,2.1-1.5s1.7-0.5,2.7-0.5c1.2,0,2.3,0.2,3.2,0.7c0.9,0.4,1.6,1,2.2,1.8c0,0,0,0.1,0,0.2l-1.8,1.8
	c0,0-0.1,0-0.2,0c-0.4-0.5-0.8-0.9-1.3-1.2c-0.5-0.3-1.2-0.5-1.9-0.5c-0.6,0-1.1,0.1-1.6,0.3c-0.5,0.2-0.9,0.5-1.2,0.9
	c-0.3,0.4-0.6,0.8-0.8,1.3s-0.3,1-0.3,1.6c0,0.6,0.1,1.1,0.3,1.6s0.4,0.9,0.8,1.3c0.3,0.4,0.7,0.6,1.2,0.9c0.5,0.2,1,0.3,1.5,0.3
	c0.5,0,0.9,0,1.2-0.1c0.3-0.1,0.6-0.2,0.9-0.4c0.3-0.2,0.5-0.4,0.7-0.6c0.2-0.2,0.4-0.4,0.5-0.6c0,0,0.1-0.1,0.2,0
	C53.6,23.9,55.4,25.5,55.4,25.5z M56.9,15.1c0-0.1,0.1-0.1,0.1-0.1h4.7c0.8,0,1.4,0.1,2,0.3c0.6,0.2,1,0.5,1.4,0.9s0.7,0.8,0.9,1.3
	s0.3,1,0.3,1.6c0,0.8-0.2,1.6-0.6,2.2c-0.4,0.6-0.8,1.1-1.5,1.5c-0.1,0-0.1,0.1,0,0.2l2.7,4.9c0,0.1,0,0.2-0.1,0.2h-3l-0.1-0.1
	l-2.4-4.6l-0.1-0.1h-1.5c-0.1,0-0.1,0.1-0.1,0.1v4.5c0,0.1-0.1,0.1-0.1,0.1H57c-0.1,0-0.1-0.1-0.1-0.1L56.9,15.1L56.9,15.1z
	 M61.6,20.9c0.5,0,1-0.2,1.3-0.5c0.3-0.3,0.5-0.7,0.5-1.2c0-0.5-0.2-1-0.5-1.3c-0.3-0.3-0.7-0.5-1.3-0.5h-1.7
	c-0.1,0-0.1,0.1-0.1,0.1v3.2c0,0.1,0.1,0.1,0.1,0.1L61.6,20.9L61.6,20.9z M68.8,15h8.7c0.1,0,0.1,0.1,0.1,0.1v2.3
	c0,0.1-0.1,0.1-0.1,0.1h-5.7c-0.1,0-0.1,0.1-0.1,0.1V20c0,0.1,0.1,0.1,0.1,0.1h4.4c0.1,0,0.1,0.1,0.1,0.1v2.3c0,0.1-0.1,0.1-0.1,0.1
	h-4.4c-0.1,0-0.1,0.1-0.1,0.1v2.6c0,0.1,0.1,0.1,0.1,0.1h6.1c0.1,0,0.1,0.1,0.1,0.1v2.4c0,0.1-0.1,0.1-0.1,0.1h-9.1
	c-0.1,0-0.1-0.1-0.1-0.1V15.1C68.6,15.1,68.7,15,68.8,15 M83.7,15h3.1c0,0,0.1,0,0.1,0.1l4.7,12.8c0,0.1,0,0.2-0.1,0.2h-3
	c-0.1,0-0.1,0-0.1-0.1l-0.9-2.8c0,0-0.1-0.1-0.1-0.1h-4.4c-0.1,0-0.1,0-0.1,0.1l-0.9,2.8c0,0-0.1,0.1-0.1,0.1h-2.8
	c-0.1,0-0.1-0.1-0.1-0.2l4.8-12.8C83.6,15,83.6,15,83.7,15 M86.6,22.6l-1.4-4.4c0-0.1-0.2-0.1-0.2,0l-1.5,4.4c0,0.1,0,0.2,0.1,0.2
	h2.9C86.6,22.7,86.6,22.7,86.6,22.6 M94.3,17.6h-4c-0.1,0-0.1-0.1-0.1-0.1v-2.4c0-0.1,0.1-0.1,0.1-0.1h11.1c0.1,0,0.1,0.1,0.1,0.1
	v2.4c0,0.1-0.1,0.1-0.1,0.1h-4c-0.1,0-0.1,0.1-0.1,0.1v10.2c0,0.1-0.1,0.1-0.1,0.1h-2.7c-0.1,0-0.1-0.1-0.1-0.1V17.7
	C94.4,17.6,94.4,17.6,94.3,17.6 M103.4,15h8.7c0.1,0,0.1,0.1,0.1,0.1v2.3c0,0.1-0.1,0.1-0.1,0.1h-5.7c-0.1,0-0.1,0.1-0.1,0.1V20
	c0,0.1,0.1,0.1,0.1,0.1h4.4c0.1,0,0.1,0.1,0.1,0.1v2.3c0,0.1-0.1,0.1-0.1,0.1h-4.4c-0.1,0-0.1,0.1-0.1,0.1v2.6
	c0,0.1,0.1,0.1,0.1,0.1h6.1c0.1,0,0.1,0.1,0.1,0.1v2.4c0,0.1-0.1,0.1-0.1,0.1h-9.1c-0.1,0-0.1-0.1-0.1-0.1V15.1
	C103.3,15.1,103.3,15,103.4,15 M115.4,25.4c0,0,0.1,0,0.2,0c0.4,0.4,0.7,0.7,1.1,0.9c0.4,0.2,0.8,0.3,1.4,0.3c0.3,0,0.6,0,0.9-0.1
	s0.5-0.2,0.7-0.5s0.4-0.5,0.5-0.8s0.2-0.7,0.2-1.2v-8.9c0-0.1,0.1-0.1,0.1-0.1h1.6c0.1,0,0.1,0.1,0.1,0.1v9.1c0,0.8-0.1,1.4-0.3,1.9
	c-0.2,0.5-0.5,1-0.9,1.3s-0.8,0.6-1.3,0.7c-0.5,0.1-1,0.2-1.6,0.2c-1,0-1.7-0.2-2.4-0.5c-0.6-0.3-1.1-0.7-1.4-1.2c0,0,0-0.1,0-0.2
	L115.4,25.4z M124.9,24.9c0,0,0.1,0,0.2,0c0.2,0.2,0.3,0.4,0.5,0.5c0.2,0.2,0.5,0.4,0.8,0.6c0.3,0.2,0.6,0.3,1,0.4
	c0.4,0.1,0.7,0.2,1.1,0.2c0.9,0,1.5-0.2,2-0.6c0.5-0.4,0.7-0.9,0.7-1.6c0-0.7-0.3-1.2-0.8-1.6c-0.5-0.4-1.3-0.6-2.4-0.9
	c-0.6-0.1-1.1-0.3-1.5-0.5c-0.5-0.2-0.8-0.5-1.2-0.8c-0.3-0.3-0.6-0.7-0.8-1.1c-0.2-0.4-0.3-0.9-0.3-1.4c0-0.5,0.1-0.9,0.3-1.4
	s0.5-0.8,0.8-1.1c0.4-0.3,0.8-0.6,1.4-0.8c0.5-0.2,1.2-0.3,1.9-0.3c0.6,0,1.2,0.1,1.6,0.2c0.5,0.1,0.9,0.3,1.2,0.5s0.6,0.4,0.8,0.6
	l0.4,0.4c0,0,0,0.1,0,0.2l-1.1,1c0,0-0.1,0-0.2,0l-0.3-0.3c-0.2-0.1-0.4-0.3-0.6-0.4s-0.5-0.3-0.8-0.4c-0.3-0.1-0.7-0.1-1.1-0.1
	c-0.4,0-0.8,0.1-1.1,0.2c-0.3,0.1-0.5,0.3-0.7,0.4c-0.2,0.2-0.3,0.4-0.4,0.6c-0.1,0.2-0.1,0.4-0.1,0.7c0,0.3,0.1,0.6,0.2,0.8
	c0.1,0.2,0.3,0.4,0.6,0.6s0.6,0.3,1,0.4c0.4,0.1,0.8,0.2,1.3,0.4c0.5,0.1,1,0.3,1.4,0.5s0.9,0.4,1.2,0.8c0.4,0.3,0.7,0.7,0.9,1.2
	s0.3,1,0.3,1.7c0,0.6-0.1,1.1-0.4,1.5s-0.6,0.9-1,1.2c-0.4,0.3-0.9,0.6-1.5,0.8c-0.6,0.2-1.2,0.3-1.8,0.3c-0.6,0-1.2-0.1-1.7-0.2
	c-0.5-0.1-1-0.3-1.4-0.5s-0.8-0.5-1.1-0.7c-0.3-0.2-0.5-0.5-0.7-0.7c0,0,0-0.1,0-0.2L124.9,24.9L124.9,24.9z"/>
<path class="st1" d="M47.5,11V7.2L45.9,11h-0.2l-1.6-3.8V11h-0.6V6.3h0.8l1.4,3.5l1.5-3.5h0.8V11H47.5z M53.2,11l-0.4-1h-2.3l-0.4,1
	h-0.7l1.9-4.7H52l1.9,4.7H53.2z M51.7,6.9l-1,2.5h2C52.7,9.4,51.7,6.9,51.7,6.9z M55.2,11V6.3h1.6c1.4,0,2.4,1,2.4,2.3
	c0,1.3-0.9,2.3-2.4,2.3H55.2z M58.6,8.7c0-1-0.6-1.8-1.8-1.8h-1v3.6h1C57.9,10.5,58.6,9.7,58.6,8.7z M60.8,11V6.3h3.1v0.5h-2.5v1.5
	h2.4v0.5h-2.4v1.6h2.5V11H60.8z M71.5,11l-1-3.8l-1,3.8h-0.6l-1.3-4.7h0.6l1,3.9l1.1-3.9h0.5l1.1,3.9l1-3.9h0.6L72.2,11H71.5z
	 M74.8,11V6.3h0.6V11H74.8z M78.4,11V6.8h-1.5V6.3h3.5v0.5H79V11H78.4z M85.2,11V8.9h-2.7V11h-0.6V6.3h0.6v2h2.7v-2h0.6V11H85.2z"/>
</svg>
